<svg width="22" height="22" viewBox="0 0 22 22" fill="none" xmlns="http://www.w3.org/2000/svg">
<path d="M15.2928 20.7055V17.8355C15.3303 17.3587 15.2659 16.8793 15.1038 16.4293C14.9417 15.9793 14.6857 15.5689 14.3528 15.2255C17.4928 14.8755 20.7928 13.6855 20.7928 8.2255C20.7925 6.82933 20.2555 5.4867 19.2928 4.4755C19.7486 3.25401 19.7164 1.90385 19.2028 0.705504C19.2028 0.705504 18.0228 0.355504 15.2928 2.1855C13.0008 1.56432 10.5848 1.56432 8.2928 2.1855C5.5628 0.355504 4.3828 0.705504 4.3828 0.705504C3.86917 1.90385 3.83694 3.25401 4.2928 4.4755C3.32292 5.4942 2.78532 6.84897 2.7928 8.2555C2.7928 13.6755 6.09279 14.8655 9.23279 15.2555C8.90379 15.5955 8.65006 16.0009 8.4881 16.4454C8.32615 16.8899 8.2596 17.3636 8.2928 17.8355V20.7055" stroke="white" stroke-linecap="round" stroke-linejoin="round"/>
<path d="M8.29272 18.7053C5.29272 19.6785 2.79272 18.7053 1.29272 15.7053" stroke="white" stroke-linecap="round" stroke-linejoin="round"/>
</svg>
