<svg width="22" height="22" viewBox="0 0 22 22" fill="none" xmlns="http://www.w3.org/2000/svg">
<path d="M10.7226 15.0266C13.1238 15.0266 15.0704 13.08 15.0704 10.6788C15.0704 8.27752 13.1238 6.33093 10.7226 6.33093C8.32134 6.33093 6.37476 8.27752 6.37476 10.6788C6.37476 13.08 8.32134 15.0266 10.7226 15.0266Z" stroke="white" stroke-linecap="round" stroke-linejoin="round"/>
<path d="M15.5053 0.678711H5.94005C3.05856 0.678711 0.722656 3.01462 0.722656 5.8961V15.4613C0.722656 18.3428 3.05856 20.6787 5.94005 20.6787H15.5053C18.3867 20.6787 20.7227 18.3428 20.7227 15.4613V5.8961C20.7227 3.01462 18.3867 0.678711 15.5053 0.678711Z" stroke="white" stroke-linecap="round" stroke-linejoin="round"/>
<path d="M16.3749 5.89611C16.8552 5.89611 17.2445 5.5068 17.2445 5.02655C17.2445 4.5463 16.8552 4.15698 16.3749 4.15698C15.8947 4.15698 15.5054 4.5463 15.5054 5.02655C15.5054 5.5068 15.8947 5.89611 16.3749 5.89611Z" fill="white"/>
</svg>
