<svg width="23" height="22" viewBox="0 0 23 22" fill="none" xmlns="http://www.w3.org/2000/svg">
<path d="M12.5131 9.09616V7.18395H8.02654C8.08645 8.45057 8.02654 20.6783 8.02654 20.6783H12.5131V13.1421C12.5131 12.738 12.5434 12.3363 12.6618 12.048C12.9866 11.2418 13.7238 10.4075 14.9645 10.4075C16.5876 10.4075 17.2368 11.6453 17.2368 13.459V20.6787H21.7227V12.9404C21.7227 8.7952 19.5095 6.86712 16.5569 6.86676C14.1738 6.86676 13.1086 8.17849 12.5131 9.09616ZM12.5131 9.09616C12.5045 9.11095 12.4926 9.12611 12.4839 9.14018H12.5131V9.09616ZM3.33174 0.678711C1.797 0.678711 0.792725 1.68551 0.792725 3.00951C0.792725 4.305 1.76741 5.34248 3.2722 5.34248H3.30251C4.86648 5.34248 5.84009 4.305 5.84009 3.00951C5.81086 1.68551 4.86685 0.678711 3.33174 0.678711ZM1.05868 20.6783H5.54454V7.18431H1.05868V20.6783Z" stroke="white" stroke-miterlimit="10" stroke-linecap="round" stroke-linejoin="round"/>
</svg>
