<svg width="27" height="22" viewBox="0 0 27 22" fill="none" xmlns="http://www.w3.org/2000/svg">
<path d="M25.7072 3.05291C24.7501 3.44866 23.7399 3.70122 22.7091 3.80246C23.7468 3.16575 24.5391 2.19736 24.9577 1.05415C23.9537 1.65172 22.8554 2.07415 21.7097 2.30338C21.2602 1.78557 20.7032 1.37202 20.0776 1.09154C19.4519 0.81106 18.7725 0.670408 18.0869 0.679385C17.4218 0.668508 16.7611 0.789416 16.143 1.03514C15.5248 1.28086 14.9614 1.64653 14.4852 2.11106C14.0091 2.57559 13.6296 3.12979 13.3687 3.7417C13.1078 4.35361 12.9706 5.01112 12.9651 5.6763C12.9447 6.05538 12.9869 6.43522 13.09 6.80059C11.1137 6.73863 9.17436 6.24861 7.40583 5.36434C5.6373 4.48008 4.08168 3.22263 2.84631 1.67876C2.32178 2.40319 2.05763 3.2837 2.09678 4.17723C2.10327 5.01368 2.31097 5.83629 2.70235 6.57556C3.09373 7.31484 3.65728 7.94906 4.3454 8.42465C3.55787 8.30791 2.79685 8.05423 2.09678 7.67511V7.80003C2.02732 8.94685 2.38439 10.0789 3.0993 10.9783C3.81421 11.8777 4.83646 12.4809 5.96939 12.672C5.52002 12.7813 5.05695 12.8234 4.59524 12.797C4.25727 12.8172 3.91846 12.7748 3.59586 12.672C3.91246 13.684 4.54339 14.5688 5.39704 15.1978C6.25068 15.8268 7.2826 16.1673 8.34296 16.1699C6.51642 17.5701 4.27328 18.3179 1.97189 18.2936C1.55159 18.314 1.13059 18.2719 0.722656 18.1686C3.34126 19.9169 6.44602 20.7915 9.59212 20.6671C18.9614 20.6671 23.2087 12.9218 23.2087 6.30092V5.6763C24.1952 4.96227 25.0421 4.07304 25.7072 3.05291Z" stroke="white" stroke-linecap="round" stroke-linejoin="round"/>
</svg>
